<svg width="34" height="29" viewBox="0 0 34 29" fill="none" xmlns="http://www.w3.org/2000/svg">
<path d="M8.31 0C6.02475 0 3.9888 0.95565 2.45145 2.45145C0.95565 3.94725 0 5.9832 0 8.31C0 10.5953 0.95565 12.6312 2.45145 14.1686L16.62 28.3371L30.7886 14.1686C32.2844 12.6728 33.24 10.6368 33.24 8.31C33.24 6.02475 32.2844 3.9888 30.7886 2.45145C29.2928 0.95565 27.2568 0 24.93 0C22.6448 0 20.6088 0.95565 19.0715 2.45145C17.5757 3.94725 16.62 5.9832 16.62 8.31C16.62 6.02475 15.6644 3.9888 14.1686 2.45145C12.6728 0.95565 10.6368 0 8.31 0Z" fill="#DC2626"/>
</svg>
